# xmcd
#
# Track frame offsets:
#	180
#	11844
#	22535
#	32952
#	43096
#	56038
#	66387
#	77525
#	88508
#	102987
#	115564
#	126789
#	138070
#	148983
#	159425
#	170729
#	181732
#	194551
#	205184
#	215505
#
# Disc length: 3061 seconds
#
# Revision: 0
# Processed by: cddbd v1.4PL0 Copyright (c) Steve Scherf et al.
# Submitted via: dBpowerAMP V4.0
#
DISCID=170bf314
DTITLE=Patsy Cline - 20 Track Collection
DYEAR=2002
DGENRE=Country
TTITLE0=Walking After Midnight
TTITLE1=Honky Tonk Merry-Go-Round
TTITLE2=I Love You Honey
TTITLE3=Three Cigarettes In An Ashtray
TTITLE4=Life's Railway To Heaven
TTITLE5=Walkin' Dreams
TTITLE6=A Stranger In My Arms
TTITLE7=Stop The World
TTITLE8=Then You'll Know
TTITLE9=A Poor Man's Roses Or A Rich Man's Gold
TTITLE10=Hungry For Love
TTITLE11=Crazy Dreams
TTITLE12=I Cried All The Way To The Altar
TTITLE13=Lovesick Blues
TTITLE14=That Wonderful Someone
TTITLE15=There He Goes
TTITLE16=Yes I Understand
TTITLE17=I Don't Wanna
TTITLE18=How Can I Face Tomorrow
TTITLE19=A Church, A Courtroom, And Then Goodbye
EXTD=
EXTT0=
EXTT1=
EXTT2=
EXTT3=
EXTT4=
EXTT5=
EXTT6=
EXTT7=
EXTT8=
EXTT9=
EXTT10=
EXTT11=
EXTT12=
EXTT13=
EXTT14=
EXTT15=
EXTT16=
EXTT17=
EXTT18=
EXTT19=
PLAYORDER=
